# xmcd
#
# Track frame offsets: 
#        150
#        8665
#        20171
#        30483
#        44466
#        59392
#        76424
#        87474
#        103996
#        113194
#        122745
#        130325
#        143154
#
# Disc length: 2155 seconds
#
# Revision: 0
# Processed by: cddbd v1.5.2PL0 Copyright (c) Steve Scherf et al.
# Submitted via: ExactAudioCopy v1.3
#
DISCID=b108690d
DTITLE=Langhorne Slim and The War Eagles - Langhorne Slim
DYEAR=2008
DGENRE=Blues
TTITLE0=Spinning Compass
TTITLE1=Rebel Side of Heaven
TTITLE2=Restless
TTITLE3=Sometimes
TTITLE4=She's Gone
TTITLE5=Colette
TTITLE6=Hello Sunshine
TTITLE7=Diamonds and Gold
TTITLE8=The Honeymoon
TTITLE9=Tipping Point
TTITLE10=Oh Honey
TTITLE11=Worries
TTITLE12=Hummingbird
EXTD=
EXTT0=
EXTT1=
EXTT2=
EXTT3=
EXTT4=
EXTT5=
EXTT6=
EXTT7=
EXTT8=
EXTT9=
EXTT10=
EXTT11=
EXTT12=
PLAYORDER=
